<?xml version="1.0" encoding="UTF-8" standalone="no"?>
<!-- Created with Inkscape (http://www.inkscape.org/) -->

<svg
   xmlns:dc="http://purl.org/dc/elements/1.1/"
   xmlns:cc="http://creativecommons.org/ns#"
   xmlns:rdf="http://www.w3.org/1999/02/22-rdf-syntax-ns#"
   xmlns:svg="http://www.w3.org/2000/svg"
   xmlns="http://www.w3.org/2000/svg"
   xmlns:sodipodi="http://sodipodi.sourceforge.net/DTD/sodipodi-0.dtd"
   xmlns:inkscape="http://www.inkscape.org/namespaces/inkscape"
   width="48"
   height="48"
   viewBox="0 0 12.7 12.7"
   version="1.1"
   id="svg8"
   inkscape:version="0.92.1 r"
   sodipodi:docname="logo-notification.svg"
   inkscape:export-filename="/home/hunter/Projects/SpectrumWrapper/res/logo-notification.png"
   inkscape:export-xdpi="96"
   inkscape:export-ydpi="96">
  <defs
     id="defs2" />
  <sodipodi:namedview
     id="base"
     pagecolor="#ffffff"
     bordercolor="#666666"
     borderopacity="1.0"
     inkscape:pageopacity="0.0"
     inkscape:pageshadow="2"
     inkscape:zoom="1"
     inkscape:cx="50.330976"
     inkscape:cy="-76.803794"
     inkscape:document-units="mm"
     inkscape:current-layer="layer1"
     showgrid="false"
     fit-margin-top="0"
     fit-margin-left="0"
     fit-margin-right="0"
     fit-margin-bottom="0"
     inkscape:window-width="1920"
     inkscape:window-height="1016"
     inkscape:window-x="1920"
     inkscape:window-y="27"
     inkscape:window-maximized="1"
     units="px"
     inkscape:pagecheckerboard="true" />
  <metadata
     id="metadata5">
    <rdf:RDF>
      <cc:Work
         rdf:about="">
        <dc:format>image/svg+xml</dc:format>
        <dc:type
           rdf:resource="http://purl.org/dc/dcmitype/StillImage" />
        <dc:title></dc:title>
      </cc:Work>
    </rdf:RDF>
  </metadata>
  <g
     inkscape:label="Layer 1"
     inkscape:groupmode="layer"
     id="layer1"
     transform="translate(-82.442902,-141.37119)">
    <path
       style="fill:none;fill-rule:evenodd;stroke:#ffffff;stroke-width:1;stroke-linecap:butt;stroke-linejoin:miter;stroke-miterlimit:4;stroke-dasharray:none;stroke-opacity:1"
       d="m 89.282683,142.13652 c -0.08613,0.0189 -0.172277,0.0379 -0.258414,0.0569 0,0.0189 0.0152,0.0435 0,0.0569 -0.133669,0.11766 0.0052,-0.17981 -0.12921,0.0569 -0.0096,0.0169 0.0096,0.0399 0,0.0569 -0.01362,0.024 -0.05098,0.0329 -0.06461,0.0569 -0.0096,0.0169 0.0096,0.0399 0,0.0569 -0.02724,0.048 -0.109948,0.0629 -0.129209,0.11374 0,0.25889 0.03046,0.003 -0.06461,0.17061 -0.01928,0.0339 0.02389,0.0822 0,0.11373 -0.03379,0.0446 -0.09542,0.0691 -0.129209,0.11375 -0.02389,0.0315 0.01924,0.0798 0,0.11373 -0.01363,0.024 -0.05098,0.0329 -0.06461,0.0569 -0.01928,0.0339 0.01363,0.0778 0,0.11373 -0.01523,0.0402 -0.04937,0.0735 -0.06461,0.11374 -0.0069,0.018 0.0096,0.0399 0,0.0569 -0.01363,0.024 -0.05497,0.0314 -0.06461,0.0569 -0.01363,0.036 0,0.0758 0,0.11374 0,0.0189 0.0096,0.0399 0,0.0569 -0.05947,0.1047 -0.134345,0.009 -0.193814,0.11374 -0.03447,0.0607 0.03448,0.053 0,0.11374 -0.01363,0.024 -0.05098,0.0329 -0.06461,0.0569 -0.0096,0.0169 0,0.0379 0,0.0569 0,0.0379 0.01363,0.0778 0,0.11374 -0.01634,0.0431 -0.228729,0.17521 -0.258417,0.22748 -0.0096,0.0169 0.0096,0.0399 0,0.0569 -0.03179,0.056 -0.22663,0.17151 -0.258417,0.22748 -0.0096,0.0169 0.0096,0.0399 0,0.0569 -0.01337,0.0235 -0.166429,0.15454 -0.193812,0.17061 -0.04007,0.0235 -0.09516,0.0269 -0.129209,0.0569 -0.03045,0.0268 0.01927,0.0798 0,0.11374 -0.01362,0.024 -0.05497,0.0314 -0.06461,0.0569 -0.01362,0.036 0,0.0758 0,0.11374 0,0.0189 0.0096,0.0399 0,0.0569 -0.03876,0.0682 -0.15505,0.10236 -0.193812,0.17061 -0.0096,0.017 0,0.0379 0,0.0569 -0.02154,0.0379 -0.0379,0.0785 -0.06461,0.11374 -0.09894,0.13065 -0.0369,-0.0244 -0.193814,0.11374 -0.03046,0.0268 0.01927,0.0798 0,0.11373 -0.02724,0.048 -0.101972,0.0658 -0.129208,0.11374 -0.01926,0.0339 0.01927,0.0798 0,0.11374 -0.01362,0.024 -0.04307,0.0379 -0.06461,0.0569 -0.02154,0.0189 -0.03927,0.042 -0.06461,0.0569 -0.04007,0.0235 -0.102497,0.0216 -0.129208,0.0569 -0.02389,0.0316 0,0.0758 0,0.11374 -0.02154,0.0379 -0.03572,0.0798 -0.06461,0.11374 -0.04307,0.0379 -0.08613,0.0758 -0.129208,0.11374 0,0.0189 0.0096,0.0399 0,0.0569 -0.02724,0.0479 -0.101972,0.0658 -0.129208,0.11374 -0.0096,0.0169 0.0096,0.0399 0,0.0569 -0.01362,0.024 -0.05098,0.0329 -0.06461,0.0569 -0.0096,0.0169 0.0096,0.0399 0,0.0569 -0.03179,0.056 -0.226631,0.17151 -0.258416,0.22748 -0.01927,0.0339 0.01362,0.0778 0,0.11373 -0.0875,0.23106 -0.03606,-0.004 -0.193813,0.22748 -0.314733,0.46176 0.01235,0.0243 -0.06461,0.22748 -0.01522,0.0402 -0.04937,0.0735 -0.06461,0.11374 -0.01362,0.036 0.01927,0.0798 0,0.11374 -0.01362,0.024 -0.05098,0.0329 -0.06461,0.0569 -0.03046,0.0536 -0.03415,0.11699 -0.06461,0.17061 -0.02724,0.048 -0.101972,0.0658 -0.129208,0.11374 -0.03046,0.0536 -0.03415,0.11699 -0.06461,0.17061 -0.01362,0.024 -0.04307,0.0379 -0.06461,0.0569 -0.04307,0.0379 -0.09542,0.0691 -0.129209,0.11373 -0.01195,0.0158 0.0096,0.0399 0,0.0569 -0.02643,0.0465 -0.153236,0.12298 -0.193812,0.17061 -0.04659,0.0547 -0.08262,0.11592 -0.129209,0.1706 -0.01003,0.0118 -0.127413,0.109 -0.129209,0.11374 -0.01362,0.036 0,0.0758 0,0.11374 0,0.0189 0.0096,0.0399 0,0.0569 -0.134434,0.23668 0.0045,-0.0608 -0.129208,0.0569 -0.01522,0.0134 0.0069,0.0389 0,0.0569 -0.155985,0.41193 0.01863,-0.0897 -0.129209,0.17061 -0.0096,0.017 0.0096,0.0399 0,0.0569 -0.01362,0.024 -0.04307,0.0379 -0.06461,0.0569 -0.04307,0.0379 -0.09267,0.0708 -0.129208,0.11374 -0.122388,-0.006 -0.04307,0.13269 -0.06461,0.1706 -0.01362,0.024 -0.05497,0.0314 -0.06461,0.0569 -0.01362,0.036 0.01926,0.0798 0,0.11374 -0.02724,0.048 -0.08614,0.0758 -0.12921,0.11374 -0.02153,0.0189 -0.04307,0.0379 -0.06461,0.0569 -0.02154,0.0189 -0.03737,0.0449 -0.06461,0.0569 -0.01927,0.009 -0.05497,-0.0169 -0.06461,0 -0.159663,0.2811 0.143353,-0.0125 -0.06461,0.17061 -0.02154,0.0189 -0.04307,0.0379 -0.06461,0.0569 -0.02154,0.0189 -0.05098,0.0329 -0.06461,0.0569 -0.0096,0.0169 0.0096,0.0399 0,0.0569 -0.01846,0.0325 -0.192116,0.11523 -0.129209,0.17061 0.002,0.002 0.178144,0 0.193813,0 h 0.06461 c 0.02154,0 0.04534,0.008 0.06461,0 0.02724,-0.012 0.03737,-0.0449 0.06461,-0.0569 0.01927,-0.008 0.06461,-0.0189 0.06461,0 0,0.0189 -0.08614,0 -0.06461,0 h 0.193813 0.387625 1.292085 0.45223 c 0.02909,0 0.17415,0.009 0.193813,0 0.02724,-0.012 0.03571,-0.0484 0.06461,-0.0569 0.03307,-0.01 0.34144,0 0.387626,0 h 0.77525 1.485899 0.32302 0.06461 c 0.02155,0 0.04668,0.0105 0.0646,0 0.05068,-0.0297 0.07853,-0.084 0.129211,-0.11374 0.0179,-0.0105 0.04307,0 0.06461,0 h 0.06461 0.387623 c 0.02909,0 0.174151,-0.009 0.193814,0 0.02725,0.012 0.03737,0.0449 0.06461,0.0569 0.01924,0.008 0.06461,-0.0189 0.06461,0 0,0.0189 -0.08613,0 -0.06461,0 h 0.129208 0.06461 c 0.02155,0 0.04937,-0.0134 0.06461,0 0.0062,0.006 0,0.26268 0,0.28435 v 0.45496 c 0,0.0482 0.01159,0.1969 0,0.22747 -0.0096,0.0254 -0.05099,0.0329 -0.06461,0.0569 -0.01924,0.0339 0.01925,0.0798 0,0.11374 -0.01729,0.0304 -0.111927,0.0833 -0.129209,0.11374 -0.0086,0.0152 0,0.3155 0,0.34122 0,0.0481 0.01159,0.19691 0,0.22748 -0.0096,0.0254 -0.05098,0.0329 -0.06461,0.0569 -0.0096,0.017 0,0.0379 0,0.0569 0,0.0569 -0.02043,0.11665 0,0.1706 0.0096,0.0254 0.05098,0.0329 0.06461,0.0569 0.0096,0.017 0,0.0379 0,0.0569 v 0.0569 0.17061 c 0,0.0189 -0.0096,0.0399 0,0.0569 0.02724,0.048 0.101972,0.0658 0.129209,0.11374 0.0096,0.0169 -0.0096,0.0399 0,0.0569 0.03991,0.0703 0.06238,0.0569 0.129212,0.0569 0.02155,0 0.04534,0.008 0.06461,0 0.02724,-0.012 0.03737,-0.0449 0.06461,-0.0569 0.03852,-0.0169 0.09069,0.0169 0.129208,0 0.142844,-0.0629 0.02007,-0.0353 0.06461,-0.11375 0.02724,-0.048 0.101972,-0.0658 0.129206,-0.11374 0.0096,-0.0169 -0.0052,-0.0385 0,-0.0569 0.0165,-0.0582 0.03415,-0.11699 0.06461,-0.17061 0.01363,-0.024 0.05098,-0.0329 0.06461,-0.0569 0.0096,-0.0169 -0.0096,-0.0399 0,-0.0569 0.0136,-0.024 0.05099,-0.0329 0.06461,-0.0569 0.0096,-0.0169 0,-0.0379 0,-0.0569 v -0.0569 -0.28435 c 0,-0.0379 -0.01045,-0.077 0,-0.11374 0.0165,-0.0582 0.04808,-0.11245 0.06461,-0.17061 0.0052,-0.0184 -0.0096,-0.0399 0,-0.0569 0.01359,-0.024 0.05098,-0.0329 0.0646,-0.0569 0.0096,-0.0169 -0.01194,-0.0411 0,-0.0569 0.03377,-0.0446 0.08613,-0.0758 0.129209,-0.11373 0.02155,-0.0189 0.05497,-0.0314 0.06461,-0.0569 0.01359,-0.036 0,-0.0758 0,-0.11373 0,-0.0189 -0.0096,-0.0399 0,-0.0569 0.01359,-0.024 0.05098,-0.0329 0.06461,-0.0569 0.03447,-0.0607 -0.03448,-0.053 0,-0.11374 0.01359,-0.024 0.04307,-0.0379 0.0646,-0.0569 0.02154,-0.0189 0.04308,-0.0758 0.06461,-0.0569 0.02155,0.0189 -0.08614,0.0758 -0.06461,0.0569 0.04308,-0.0379 0.09542,-0.0691 0.129211,-0.11374 0.02389,-0.0316 -0.03046,-0.0869 0,-0.11374 0.01523,-0.0134 0.04534,0.008 0.06461,0 0.268868,-0.11834 -0.06906,0.004 0.06461,-0.11374 0.01521,-0.0134 0.04937,0.0134 0.06461,0 0.01555,-0.0137 -0.01555,-0.21379 0,-0.22748 0.01521,-0.0134 0.04307,0 0.0646,0 h 0.516835 c 0.02909,0 0.174152,0.009 0.193811,0 0.02724,-0.012 0.03737,-0.0449 0.06461,-0.0569 0.01928,-0.008 0.04307,0 0.06461,0 h 0.06461 0.323021 0.32302 c 0.04307,0 0.08673,0.006 0.129209,0 0.08758,-0.0128 0.17052,-0.0458 0.258418,-0.0569 0.106591,-0.0134 0.217437,0.0186 0.32302,0 0.06678,-0.0117 0.127749,-0.0423 0.193812,-0.0569 0.02088,-0.005 0.04937,0.0134 0.06461,0 10e-4,-8.9e-4 0.0069,-0.20348 0,-0.22748 -0.23421,-0.6185 0.03405,0.14987 -0.06461,-0.28434 -0.06722,-0.29585 -0.04307,-0.0569 -0.129209,-0.28435 -0.02043,-0.054 0.01565,-0.11544 0,-0.17061 -0.0117,-0.0411 -0.05516,-0.0722 -0.06461,-0.11374 -0.01267,-0.0558 0,-0.11374 0,-0.17061 0,-0.0379 0.01925,-0.0798 0,-0.11374 -0.02724,-0.048 -0.09542,-0.0691 -0.129208,-0.11374 -0.01183,-0.0156 0.0046,-0.2152 0,-0.22747 -0.0096,-0.0254 -0.05099,-0.0329 -0.06461,-0.0569 -0.01925,-0.0339 0.01925,-0.0798 0,-0.11375 -0.01359,-0.024 -0.05098,-0.0329 -0.06461,-0.0569 -0.0096,-0.0169 0.0069,-0.0389 0,-0.0569 -0.01521,-0.0402 -0.04937,-0.0735 -0.06461,-0.11373 -0.06411,-0.1693 0.152971,0.11668 -0.06461,-0.17061 -0.03377,-0.0446 -0.101972,-0.0658 -0.129211,-0.11374 -0.0096,-0.017 0.0096,-0.0399 0,-0.0569 -0.01359,-0.024 -0.05098,-0.0329 -0.06461,-0.0569 -0.0096,-0.0169 0.0096,-0.0399 0,-0.0569 -0.0136,-0.024 -0.05497,-0.0314 -0.06461,-0.0569 -0.01365,-0.036 0.01925,-0.0798 0,-0.11374 -0.02724,-0.048 -0.09267,-0.0708 -0.129208,-0.11374 -0.05779,-0.0678 -0.07578,-0.15694 -0.129211,-0.22748 -0.04969,-0.0656 -0.144117,-0.10499 -0.19381,-0.17061 -0.01194,-0.0158 0.0096,-0.0399 0,-0.0569 -0.02724,-0.048 -0.109948,-0.0629 -0.129211,-0.11375 -0.01359,-0.036 0,-0.0758 0,-0.11373 0,-0.019 0.01196,-0.0411 0,-0.0569 -0.03377,-0.0446 -0.09542,-0.0691 -0.129206,-0.11374 -0.01196,-0.0158 0.0069,-0.0389 0,-0.0569 -0.01523,-0.0402 -0.0379,-0.0785 -0.06461,-0.11374 -0.01687,-0.0223 -0.05497,-0.0314 -0.06461,-0.0569 0,-0.37723 0.03046,0.0804 -0.06461,-0.17061 -0.01359,-0.036 0.016,-0.0785 0,-0.11374 -0.02885,-0.0635 -0.100375,-0.10715 -0.129206,-0.17061 -0.016,-0.0352 0.01045,-0.077 0,-0.11374 -0.01169,-0.0411 -0.04937,-0.0735 -0.06461,-0.11374 -0.0069,-0.018 0.0096,-0.0399 0,-0.0569 -0.0136,-0.024 -0.05098,-0.0329 -0.06461,-0.0569 -0.0096,-0.017 0.0096,-0.0399 0,-0.0569 -0.01359,-0.024 -0.05497,-0.0314 -0.06461,-0.0569 -0.01359,-0.036 0.01925,-0.0798 0,-0.11375 -0.03876,-0.0682 -0.15505,-0.10236 -0.193812,-0.1706 -0.03448,-0.0607 0.03447,-0.0531 0,-0.11374 -0.01359,-0.024 -0.04307,-0.0379 -0.06461,-0.0569 -0.02155,-0.0189 -0.04307,-0.0379 -0.06461,-0.0569 -0.08614,-0.0758 -0.17228,-0.15165 -0.258418,-0.22748 -0.02155,-0.0189 -0.05098,-0.0329 -0.06461,-0.0569 -0.03046,-0.0536 -0.03415,-0.11699 -0.06461,-0.17061 -0.01359,-0.024 -0.04307,-0.0379 -0.06461,-0.0569 -0.02155,-0.0189 -0.04307,-0.0379 -0.0646,-0.0569 -0.08615,-0.0758 -0.17228,-0.15165 -0.258421,-0.22748 -0.02155,-0.0189 -0.04307,-0.0379 -0.0646,-0.0569 -0.02155,-0.0189 -0.05099,-0.0329 -0.06461,-0.0569 -0.0096,-0.017 0.0096,-0.0399 0,-0.0569 -0.03179,-0.056 -0.226631,-0.17152 -0.258417,-0.22748 -0.0096,-0.0169 0.0096,-0.0399 0,-0.0569 -0.01363,-0.024 -0.0477,-0.0346 -0.06461,-0.0569 -0.0267,-0.0353 -0.0379,-0.0785 -0.06461,-0.11374 -0.0169,-0.0223 -0.04307,-0.0379 -0.06461,-0.0569 -0.06461,-0.0569 -0.129206,-0.11374 -0.193809,-0.17061 -0.06461,-0.0569 -0.129211,-0.11374 -0.193815,-0.17061 -0.02155,-0.0189 -0.05098,-0.0329 -0.06461,-0.0569 -0.0096,-0.0169 0.0096,-0.0399 0,-0.0569 -0.02724,-0.048 -0.101973,-0.0658 -0.129207,-0.11374 -0.0096,-0.017 0.01194,-0.0411 0,-0.0569 -0.0497,-0.0656 -0.144118,-0.105 -0.193813,-0.17061 -0.0267,-0.0353 -0.10251,-0.1354 -0.12922,-0.17065 -0.0169,-0.0223 0.01363,0.024 0,0 -0.0096,-0.017 0.0096,-0.0399 0,-0.0569 0.10267,-0.13785 -0.162322,-0.10136 -0.194105,-0.15732 -0.05718,-0.10067 0,0 -0.128922,-0.1839 -0.04007,-0.0235 -0.111324,-0.0175 -0.129209,-0.0569 -0.03199,-0.0704 0.315712,0.11729 0.0877,-0.13978 z"
       id="path10"
       inkscape:connector-curvature="0"
       sodipodi:nodetypes="cccccccccccccccccsccccscccccccccscccccccccccccccccccccccccccccccccccscccccccccccccccccccssccsscccsccscccsccscsccsscscssccccsccsccscscccsccccccccccscscccccccsccccccccccccssccsccsccccccccccsccccccccccccccccccccscccccccccccccccccccccccccccccccccccccccccccccccc" />
  </g>
</svg>
