<?xml version="1.0" encoding="UTF-8" standalone="no"?>
<!-- Created with Inkscape (http://www.inkscape.org/) -->

<svg
   xmlns:dc="http://purl.org/dc/elements/1.1/"
   xmlns:cc="http://creativecommons.org/ns#"
   xmlns:rdf="http://www.w3.org/1999/02/22-rdf-syntax-ns#"
   xmlns:svg="http://www.w3.org/2000/svg"
   xmlns="http://www.w3.org/2000/svg"
   xmlns:sodipodi="http://sodipodi.sourceforge.net/DTD/sodipodi-0.dtd"
   xmlns:inkscape="http://www.inkscape.org/namespaces/inkscape"
   width="34.10535mm"
   height="38.762192mm"
   viewBox="0 0 34.10535 38.762192"
   version="1.1"
   id="svg8"
   inkscape:version="0.92.1 r"
   sodipodi:docname="logo-plain.svg">
  <defs
     id="defs2" />
  <sodipodi:namedview
     id="base"
     pagecolor="#ffffff"
     bordercolor="#666666"
     borderopacity="1.0"
     inkscape:pageopacity="0.0"
     inkscape:pageshadow="2"
     inkscape:zoom="0.98994949"
     inkscape:cx="-67.699623"
     inkscape:cy="128.022"
     inkscape:document-units="mm"
     inkscape:current-layer="layer1"
     showgrid="false"
     fit-margin-top="0"
     fit-margin-left="0"
     fit-margin-right="0"
     fit-margin-bottom="0"
     inkscape:window-width="1920"
     inkscape:window-height="1016"
     inkscape:window-x="1920"
     inkscape:window-y="27"
     inkscape:window-maximized="1" />
  <metadata
     id="metadata5">
    <rdf:RDF>
      <cc:Work
         rdf:about="">
        <dc:format>image/svg+xml</dc:format>
        <dc:type
           rdf:resource="http://purl.org/dc/dcmitype/StillImage" />
        <dc:title></dc:title>
      </cc:Work>
    </rdf:RDF>
  </metadata>
  <g
     inkscape:label="Layer 1"
     inkscape:groupmode="layer"
     id="layer1"
     transform="translate(-82.442902,-115.309)">
    <path
       style="fill:none;fill-rule:evenodd;stroke:#65e0ff;stroke-width:1;stroke-linecap:butt;stroke-linejoin:miter;stroke-miterlimit:4;stroke-dasharray:none;stroke-opacity:1"
       d="m 100.91964,115.9494 c -0.25198,0.063 -0.50397,0.126 -0.75595,0.18899 0,0.063 0.0445,0.14444 0,0.18899 -0.391023,0.39102 0.0153,-0.59754 -0.377976,0.18899 -0.02817,0.0563 0.02817,0.13264 0,0.18898 -0.03984,0.0797 -0.149146,0.10931 -0.188989,0.18899 -0.02817,0.0563 0.02817,0.13265 0,0.18899 -0.07969,0.15937 -0.321631,0.20894 -0.377976,0.37798 0,0.86033 0.08909,0.0108 -0.188989,0.56696 -0.05634,0.11269 0.06989,0.27315 0,0.37798 -0.09884,0.14825 -0.279139,0.22972 -0.377976,0.37798 -0.06989,0.10483 0.05634,0.26528 0,0.37797 -0.03984,0.0797 -0.149146,0.1093 -0.188987,0.18899 -0.05635,0.11269 0.03984,0.25845 0,0.37797 -0.04454,0.13364 -0.144444,0.24435 -0.188989,0.37798 -0.01992,0.0598 0.02817,0.13264 0,0.18899 -0.03984,0.0797 -0.160814,0.10447 -0.188987,0.18899 -0.03984,0.11952 0,0.25198 0,0.37797 0,0.063 0.02817,0.13265 0,0.18899 -0.173966,0.34793 -0.393001,0.0301 -0.566965,0.37798 -0.100843,0.20169 0.100844,0.17629 0,0.37797 -0.03984,0.0797 -0.149145,0.10931 -0.188989,0.18899 -0.02817,0.0563 0,0.12599 0,0.18899 0,0.12599 0.03984,0.25845 0,0.37798 -0.0478,0.1434 -0.669107,0.58226 -0.755952,0.75595 -0.02817,0.0563 0.02817,0.13264 0,0.18899 -0.09298,0.18597 -0.662966,0.56998 -0.755951,0.75595 -0.02817,0.0563 0.02817,0.13264 0,0.18899 -0.0391,0.0782 -0.48686,0.51356 -0.566965,0.56696 -0.117205,0.0781 -0.278371,0.0894 -0.377976,0.18899 -0.08909,0.0891 0.05635,0.26528 0,0.37798 -0.03984,0.0797 -0.160816,0.10447 -0.188989,0.18898 -0.03984,0.11953 0,0.25199 0,0.37798 0,0.063 0.02817,0.13264 0,0.18899 -0.113393,0.22678 -0.45357,0.34018 -0.566963,0.56696 -0.02817,0.0564 0,0.12599 0,0.18899 -0.063,0.12599 -0.110852,0.26077 -0.188989,0.37798 -0.289449,0.43417 -0.10795,-0.081 -0.566965,0.37797 -0.08909,0.0891 0.05635,0.26529 0,0.37798 -0.07968,0.15937 -0.298291,0.21861 -0.377976,0.37797 -0.05634,0.1127 0.05635,0.26529 0,0.37798 -0.03984,0.0797 -0.125992,0.12599 -0.188986,0.18899 -0.063,0.063 -0.114861,0.13957 -0.188989,0.18899 -0.117206,0.0781 -0.29984,0.0718 -0.377976,0.18899 -0.06989,0.10483 0,0.25198 0,0.37797 -0.063,0.12599 -0.104471,0.26529 -0.18899,0.37798 -0.125991,0.12599 -0.251983,0.25198 -0.377975,0.37798 0,0.063 0.02817,0.13264 0,0.18898 -0.07969,0.15937 -0.298292,0.21861 -0.377976,0.37798 -0.02817,0.0563 0.02817,0.13264 0,0.18899 -0.03984,0.0797 -0.149146,0.1093 -0.188989,0.18898 -0.02817,0.0563 0.02817,0.13265 0,0.18899 -0.09298,0.18597 -0.662967,0.56999 -0.755952,0.75595 -0.05635,0.1127 0.03984,0.25845 0,0.37798 -0.255947,0.76785 -0.105476,-0.0132 -0.566965,0.75595 -0.920694,1.5345 0.0361,0.0807 -0.188987,0.75596 -0.04454,0.13363 -0.144444,0.24434 -0.188989,0.37797 -0.03984,0.11953 0.05635,0.26529 0,0.37798 -0.03984,0.0797 -0.149145,0.1093 -0.188986,0.18899 -0.08909,0.17818 -0.0999,0.38878 -0.18899,0.56696 -0.07968,0.15937 -0.298291,0.21861 -0.377975,0.37798 -0.08909,0.17818 -0.0999,0.38878 -0.18899,0.56696 -0.03984,0.0797 -0.125992,0.12599 -0.188986,0.18899 -0.125992,0.12599 -0.279141,0.22972 -0.377976,0.37798 -0.03494,0.0524 0.02817,0.13264 0,0.18898 -0.07733,0.15466 -0.448268,0.4087 -0.566965,0.56697 -0.136282,0.18171 -0.241694,0.38525 -0.377976,0.56696 -0.02947,0.0393 -0.372724,0.36222 -0.377976,0.37798 -0.03984,0.11953 0,0.25198 0,0.37797 0,0.063 0.02817,0.13265 0,0.18899 -0.393263,0.78653 0.01304,-0.20203 -0.377976,0.18899 -0.04454,0.0445 0.01992,0.12922 0,0.18899 -0.456308,1.36892 0.05449,-0.29796 -0.377978,0.56696 -0.02817,0.0564 0.02817,0.13265 0,0.18899 -0.03984,0.0797 -0.125992,0.12599 -0.188987,0.18899 -0.125991,0.12599 -0.271068,0.23543 -0.377975,0.37798 -0.358024,-0.0215 -0.125992,0.44097 -0.18899,0.56696 -0.03984,0.0797 -0.160813,0.10447 -0.188986,0.18899 -0.03984,0.11953 0.05634,0.26528 0,0.37798 -0.07968,0.15936 -0.251984,0.25198 -0.377979,0.37797 -0.06299,0.063 -0.125992,0.12599 -0.188986,0.18899 -0.063,0.063 -0.109305,0.14914 -0.188989,0.18899 -0.05635,0.0282 -0.160814,-0.0563 -0.188987,0 -0.467066,0.93413 0.419354,-0.0414 -0.188989,0.56696 -0.063,0.063 -0.125992,0.12599 -0.188987,0.18899 -0.063,0.063 -0.149148,0.1093 -0.188989,0.18899 -0.02817,0.0563 0.02817,0.13264 0,0.18898 -0.05399,0.10799 -0.561999,0.38295 -0.377976,0.56697 0.0061,0.006 0.521129,0 0.566965,0 0.063,0 0.125992,0 0.188987,0 0.063,0 0.132643,0.0282 0.188989,0 0.07968,-0.0398 0.109302,-0.14915 0.188987,-0.18899 0.05635,-0.0282 0.188989,-0.063 0.188989,0 0,0.063 -0.251984,0 -0.188989,0 0.188989,0 0.377975,0 0.566965,0 0.377975,0 0.755951,0 1.133927,0 1.260591,0 2.185871,0 3.779763,0 0.440973,0 0.881944,0 1.322917,0 0.08511,0 0.509447,0.0288 0.566965,0 0.07969,-0.0398 0.104468,-0.16081 0.188987,-0.18899 0.09674,-0.0322 0.99882,0 1.13393,0 0.755951,0 1.511903,0 2.267855,0 1.448911,0 2.897819,0 4.346728,0 0.314978,0 0.629962,0 0.944942,0 0.063,0 0.12599,0 0.18899,0 0.063,0 0.13657,0.035 0.18898,0 0.14826,-0.0988 0.22973,-0.27914 0.37798,-0.37797 0.0524,-0.0349 0.12599,0 0.18899,0 0.063,0 0.12599,0 0.18899,0 0.37797,0 0.75595,0 1.13392,0 0.0851,0 0.50945,-0.0288 0.56697,0 0.0797,0.0398 0.1093,0.14914 0.18899,0.18898 0.0563,0.0282 0.18898,-0.063 0.18898,0 0,0.063 -0.25198,0 -0.18898,0 0.12599,0 0.25198,0 0.37797,0 0.063,0 0.126,0 0.18899,0 0.063,0 0.14444,-0.0445 0.18899,0 0.0183,0.0183 0,0.87293 0,0.94495 0,0.50396 0,1.00793 0,1.5119 0,0.16001 0.0339,0.65435 0,0.75595 -0.0282,0.0845 -0.14915,0.10931 -0.18899,0.18899 -0.0563,0.11269 0.0563,0.26529 0,0.37798 -0.0506,0.10109 -0.32743,0.27688 -0.37798,0.37797 -0.0252,0.0504 0,1.04844 0,1.13393 0,0.16001 0.0339,0.65435 0,0.75596 -0.0282,0.0845 -0.14914,0.1093 -0.18898,0.18898 -0.0282,0.0564 0,0.12599 0,0.18899 0,0.18899 -0.0598,0.38767 0,0.56696 0.0282,0.0845 0.14914,0.10931 0.18898,0.18899 0.0282,0.0564 0,0.12599 0,0.18899 0,0.063 0,0.12599 0,0.18899 0,0.18899 0,0.37797 0,0.56696 0,0.063 -0.0282,0.13265 0,0.18899 0.0797,0.15937 0.2983,0.21861 0.37798,0.37798 0.0282,0.0563 -0.0282,0.13264 0,0.18899 0.11677,0.23353 0.18246,0.18898 0.37798,0.18898 0.063,0 0.13264,0.0282 0.18899,0 0.0797,-0.0398 0.1093,-0.14914 0.18898,-0.18898 0.11269,-0.0563 0.26529,0.0563 0.37798,0 0.41786,-0.20894 0.0587,-0.1173 0.18899,-0.37798 0.0797,-0.15937 0.29829,-0.21861 0.37797,-0.37798 0.0282,-0.0563 -0.0153,-0.12787 0,-0.18899 0.0483,-0.19326 0.0999,-0.38878 0.18899,-0.56696 0.0399,-0.0797 0.14915,-0.1093 0.18899,-0.18899 0.0282,-0.0563 -0.0282,-0.13264 0,-0.18899 0.0398,-0.0797 0.14915,-0.1093 0.18899,-0.18898 0.0282,-0.0563 0,-0.126 0,-0.18899 0,-0.063 0,-0.12599 0,-0.18899 0,-0.31498 0,-0.62996 0,-0.94494 0,-0.12599 -0.0306,-0.25575 0,-0.37798 0.0483,-0.19326 0.14067,-0.3737 0.18899,-0.56696 0.0153,-0.0611 -0.0282,-0.13264 0,-0.18899 0.0398,-0.0797 0.14914,-0.1093 0.18898,-0.18899 0.0282,-0.0563 -0.0349,-0.13657 0,-0.18899 0.0988,-0.14825 0.25199,-0.25198 0.37798,-0.37797 0.063,-0.063 0.16082,-0.10447 0.18899,-0.18899 0.0398,-0.11953 0,-0.25198 0,-0.37798 0,-0.063 -0.0282,-0.13264 0,-0.18898 0.0398,-0.0797 0.14914,-0.10931 0.18899,-0.18899 0.10084,-0.20169 -0.10085,-0.17629 0,-0.37798 0.0398,-0.0797 0.12599,-0.12599 0.18898,-0.18898 0.063,-0.063 0.126,-0.25199 0.18899,-0.18899 0.063,0.063 -0.25198,0.25198 -0.18899,0.18899 0.126,-0.126 0.27915,-0.22973 0.37798,-0.37798 0.0699,-0.10483 -0.0891,-0.28889 0,-0.37798 0.0446,-0.0445 0.13264,0.0282 0.18899,0 0.78652,-0.39326 -0.20204,0.013 0.18899,-0.37797 0.0445,-0.0445 0.14444,0.0445 0.18899,0 0.0455,-0.0455 -0.0455,-0.71048 0,-0.75596 0.0445,-0.0445 0.12599,0 0.18898,0 0.50397,0 1.00794,0 1.51191,0 0.0851,0 0.50945,0.0288 0.56696,0 0.0797,-0.0398 0.10931,-0.14914 0.18899,-0.18899 0.0564,-0.0282 0.12599,0 0.18899,0 0.063,0 0.12599,0 0.18899,0 0.31498,0 0.62996,0 0.94494,0 0.31498,0 0.62996,0 0.94494,0 0.12599,0 0.2537,0.0207 0.37797,0 0.25621,-0.0427 0.49883,-0.15225 0.75596,-0.18898 0.31181,-0.0445 0.63607,0.0618 0.94494,0 0.19534,-0.0391 0.3737,-0.14068 0.56696,-0.18899 0.0611,-0.0153 0.14444,0.0445 0.18899,0 0.003,-0.003 0.0199,-0.67622 0,-0.75595 -0.68514,-2.05541 0.0996,0.49802 -0.18899,-0.94494 -0.19663,-0.98316 -0.12599,-0.18899 -0.37798,-0.94494 -0.0598,-0.17929 0.0458,-0.38362 0,-0.56697 -0.0342,-0.13666 -0.16136,-0.23985 -0.18898,-0.37798 -0.0371,-0.18531 0,-0.37797 0,-0.56696 0,-0.12599 0.0563,-0.26529 0,-0.37798 -0.0797,-0.15936 -0.27914,-0.22972 -0.37798,-0.37797 -0.0346,-0.0519 0.0136,-0.71517 0,-0.75595 -0.0282,-0.0845 -0.14915,-0.10931 -0.18899,-0.18899 -0.0563,-0.11269 0.0563,-0.26529 0,-0.37798 -0.0398,-0.0797 -0.14914,-0.1093 -0.18899,-0.18899 -0.0282,-0.0563 0.0199,-0.12922 0,-0.18898 -0.0445,-0.13364 -0.14444,-0.24434 -0.18898,-0.37798 -0.18753,-0.56259 0.44749,0.38777 -0.18899,-0.56697 -0.0988,-0.14825 -0.29829,-0.2186 -0.37798,-0.37797 -0.0282,-0.0564 0.0282,-0.13264 0,-0.18899 -0.0398,-0.0797 -0.14914,-0.1093 -0.18899,-0.18899 -0.0282,-0.0563 0.0282,-0.13264 0,-0.18899 -0.0398,-0.0797 -0.16081,-0.10446 -0.18898,-0.18898 -0.0399,-0.11953 0.0563,-0.26529 0,-0.37798 -0.0797,-0.15937 -0.27107,-0.23543 -0.37798,-0.37797 -0.16904,-0.22539 -0.2217,-0.52155 -0.37798,-0.75596 -0.14537,-0.21806 -0.42159,-0.3489 -0.56696,-0.56696 -0.0349,-0.0524 0.0282,-0.13264 0,-0.18899 -0.0797,-0.15937 -0.32163,-0.20894 -0.37798,-0.37798 -0.0398,-0.11952 0,-0.25198 0,-0.37797 0,-0.063 0.035,-0.13657 0,-0.18899 -0.0988,-0.14826 -0.27914,-0.22972 -0.37797,-0.37798 -0.035,-0.0524 0.0199,-0.12922 0,-0.18899 -0.0446,-0.13363 -0.11085,-0.26077 -0.18899,-0.37797 -0.0494,-0.0741 -0.16082,-0.10447 -0.18899,-0.18899 0,-1.25359 0.0891,0.26727 -0.18899,-0.56696 -0.0398,-0.11953 0.0468,-0.261 0,-0.37798 -0.0844,-0.21089 -0.29362,-0.35607 -0.37797,-0.56696 -0.0468,-0.11698 0.0306,-0.25575 0,-0.37798 -0.0342,-0.13666 -0.14445,-0.24434 -0.18899,-0.37798 -0.0199,-0.0598 0.0282,-0.13264 0,-0.18899 -0.0398,-0.0797 -0.14915,-0.1093 -0.18899,-0.18898 -0.0282,-0.0564 0.0282,-0.13265 0,-0.18899 -0.0398,-0.0797 -0.16082,-0.10447 -0.18899,-0.18899 -0.0398,-0.11953 0.0563,-0.26528 0,-0.37798 -0.11339,-0.22678 -0.45357,-0.34017 -0.56696,-0.56696 -0.10085,-0.20169 0.10084,-0.17629 0,-0.37797 -0.0398,-0.0797 -0.126,-0.126 -0.18899,-0.18899 -0.063,-0.063 -0.12599,-0.126 -0.18899,-0.18899 -0.25198,-0.25199 -0.50397,-0.50397 -0.75595,-0.75595 -0.063,-0.063 -0.14915,-0.10931 -0.18899,-0.18899 -0.0891,-0.17818 -0.0999,-0.38879 -0.18899,-0.56697 -0.0398,-0.0797 -0.12599,-0.12599 -0.18899,-0.18899 -0.063,-0.063 -0.12599,-0.12599 -0.18898,-0.18898 -0.25199,-0.25199 -0.50397,-0.50397 -0.75596,-0.75596 -0.063,-0.063 -0.12599,-0.12599 -0.18898,-0.18898 -0.063,-0.063 -0.14915,-0.10931 -0.18899,-0.18899 -0.0282,-0.0564 0.0282,-0.13264 0,-0.18899 -0.093,-0.18597 -0.66297,-0.56998 -0.75595,-0.75595 -0.0282,-0.0563 0.0282,-0.13264 0,-0.18899 -0.0399,-0.0797 -0.13957,-0.11486 -0.18899,-0.18899 -0.0781,-0.1172 -0.11085,-0.26077 -0.18899,-0.37797 -0.0494,-0.0741 -0.12599,-0.126 -0.18899,-0.18899 -0.18899,-0.18899 -0.37797,-0.37798 -0.56696,-0.56697 -0.18899,-0.18899 -0.37798,-0.37797 -0.56697,-0.56696 -0.063,-0.063 -0.14914,-0.1093 -0.18899,-0.18899 -0.0282,-0.0563 0.0282,-0.13264 0,-0.18899 -0.0797,-0.15937 -0.29829,-0.2186 -0.37797,-0.37797 -0.0282,-0.0564 0.0349,-0.13658 0,-0.18899 -0.14538,-0.21806 -0.42159,-0.3489 -0.56697,-0.56696 -0.0781,-0.11721 -0.11085,-0.26078 -0.18898,-0.37798 -0.0494,-0.0741 -0.14915,-0.1093 -0.18899,-0.18899 -0.0282,-0.0563 0.0282,-0.13264 0,-0.18899 -0.093,-0.18597 -0.66297,-0.56998 -0.75595,-0.75595 -0.16728,-0.33455 0.2811,-0.0646 -0.18899,-0.37798 -0.11721,-0.0781 -0.32566,-0.0582 -0.37798,-0.18899 -0.0936,-0.23396 0,-0.50396 0,-0.75595 z"
       id="path10"
       inkscape:connector-curvature="0" />
  </g>
</svg>
