<?xml version="1.0" encoding="UTF-8" standalone="no"?>
<!-- Created with Inkscape (http://www.inkscape.org/) -->

<svg
   xmlns:dc="http://purl.org/dc/elements/1.1/"
   xmlns:cc="http://creativecommons.org/ns#"
   xmlns:rdf="http://www.w3.org/1999/02/22-rdf-syntax-ns#"
   xmlns:svg="http://www.w3.org/2000/svg"
   xmlns="http://www.w3.org/2000/svg"
   xmlns:sodipodi="http://sodipodi.sourceforge.net/DTD/sodipodi-0.dtd"
   xmlns:inkscape="http://www.inkscape.org/namespaces/inkscape"
   width="1000"
   height="1000"
   viewBox="0 0 264.58331 264.58334"
   version="1.1"
   id="svg8"
   inkscape:version="0.92.1 r"
   sodipodi:docname="logo-titled.svg"
   inkscape:export-filename="/home/hunter/Projects/SpectrumWrapper/res/logo-titled.png"
   inkscape:export-xdpi="96"
   inkscape:export-ydpi="96">
  <defs
     id="defs2">
    <filter
       style="color-interpolation-filters:sRGB"
       inkscape:label="Drop Shadow"
       id="filter1413">
      <feFlood
         flood-opacity="0.792157"
         flood-color="rgb(0,0,0)"
         result="flood"
         id="feFlood1403" />
      <feComposite
         in="SourceGraphic"
         in2="flood"
         operator="in"
         result="composite1"
         id="feComposite1405" />
      <feGaussianBlur
         in="composite1"
         stdDeviation="7"
         result="blur"
         id="feGaussianBlur1407" />
      <feOffset
         dx="0"
         dy="-2.7"
         result="offset"
         id="feOffset1409" />
      <feComposite
         in="SourceGraphic"
         in2="offset"
         operator="over"
         result="composite2"
         id="feComposite1411" />
    </filter>
    <filter
       style="color-interpolation-filters:sRGB"
       inkscape:label="Drop Shadow"
       id="filter1425">
      <feFlood
         flood-opacity="0.792157"
         flood-color="rgb(0,0,0)"
         result="flood"
         id="feFlood1415" />
      <feComposite
         in="SourceGraphic"
         in2="flood"
         operator="in"
         result="composite1"
         id="feComposite1417" />
      <feGaussianBlur
         in="composite1"
         stdDeviation="7"
         result="blur"
         id="feGaussianBlur1419" />
      <feOffset
         dx="0"
         dy="-2.7"
         result="offset"
         id="feOffset1421" />
      <feComposite
         in="SourceGraphic"
         in2="offset"
         operator="over"
         result="composite2"
         id="feComposite1423" />
    </filter>
  </defs>
  <sodipodi:namedview
     id="base"
     pagecolor="#ffffff"
     bordercolor="#666666"
     borderopacity="1.0"
     inkscape:pageopacity="0.0"
     inkscape:pageshadow="2"
     inkscape:zoom="0.49497475"
     inkscape:cx="491.73441"
     inkscape:cy="550.21007"
     inkscape:document-units="mm"
     inkscape:current-layer="layer1"
     showgrid="false"
     fit-margin-top="0"
     fit-margin-left="0"
     fit-margin-right="0"
     fit-margin-bottom="0"
     inkscape:window-width="1920"
     inkscape:window-height="1016"
     inkscape:window-x="1920"
     inkscape:window-y="27"
     inkscape:window-maximized="1"
     units="px" />
  <metadata
     id="metadata5">
    <rdf:RDF>
      <cc:Work
         rdf:about="">
        <dc:format>image/svg+xml</dc:format>
        <dc:type
           rdf:resource="http://purl.org/dc/dcmitype/StillImage" />
        <dc:title></dc:title>
      </cc:Work>
    </rdf:RDF>
  </metadata>
  <g
     inkscape:label="Layer 1"
     inkscape:groupmode="layer"
     id="layer1"
     transform="translate(-71.096794,160.46329)">
    <rect
       style="opacity:1;fill:#0b111a;fill-opacity:1;stroke:none;stroke-width:1.04155266;stroke-miterlimit:4;stroke-dasharray:none;stroke-opacity:1"
       id="rect4575"
       width="264.58334"
       height="264.58334"
       x="71.096794"
       y="-160.4633" />
    <path
       style="fill:none;fill-rule:evenodd;stroke:#65e0ff;stroke-width:6.10371113;stroke-linecap:butt;stroke-linejoin:miter;stroke-miterlimit:4;stroke-dasharray:none;stroke-opacity:1;filter:url(#filter1413)"
       d="m 223.42629,-152.63961 c -1.538,0.385 -3.07606,0.769 -4.61412,1.1536 0,0.384 0.2716,0.882 0,1.1536 -2.38664,2.3866 0.093,-3.6473 -2.30705,1.1535 -0.1721,0.344 0.1721,0.81 0,1.1535 -0.243,0.486 -0.9103,0.667 -1.15348,1.1535 -0.1721,0.344 0.1721,0.81 0,1.1536 -0.4864,0.973 -1.96317,1.2753 -2.30709,2.307 0,5.2512 0.5438,0.07 -1.15353,3.4606 -0.3439,0.688 0.4266,1.6672 0,2.3071 -0.6033,0.905 -1.70379,1.4021 -2.30706,2.307 -0.4266,0.64 0.3439,1.6192 0,2.3071 -0.2432,0.487 -0.9103,0.667 -1.15352,1.1535 -0.344,0.688 0.2432,1.5775 0,2.307 -0.2719,0.816 -0.8816,1.4915 -1.15353,2.3071 -0.1216,0.365 0.1719,0.81 0,1.1536 -0.2432,0.486 -0.9816,0.637 -1.15353,1.1535 -0.2432,0.73 0,1.538 0,2.307 0,0.384 0.1719,0.81 0,1.1535 -1.06184,2.1237 -2.39876,0.184 -3.46058,2.3072 -0.6155,1.231 0.6155,1.076 0,2.307 -0.2432,0.486 -0.9103,0.667 -1.15354,1.1535 -0.1719,0.344 0,0.769 0,1.1535 0,0.769 0.2432,1.5775 0,2.3071 -0.2917,0.875 -4.08404,3.5539 -4.61411,4.6142 -0.1719,0.344 0.1719,0.81 0,1.1535 -0.5675,1.1351 -4.04655,3.4789 -4.61411,4.614 -0.1719,0.344 0.1719,0.81 0,1.1536 -0.2387,0.477 -2.97165,3.134585 -3.46059,3.460482 -0.7154,0.476997 -1.69909,0.545997 -2.30706,1.153594 -0.5438,0.543997 0.344,1.619191 0,2.307088 -0.2432,0.485997 -0.9816,0.636997 -1.15353,1.153493 -0.2432,0.73 0,1.538 0,2.307 0,0.384 0.1719,0.81 0,1.1536 -0.6921,1.3842 -2.76846,2.0764 -3.46058,3.4605 -0.1719,0.344 0,0.769 0,1.1536 -0.3845,0.769 -0.6766,1.5916 -1.15353,2.3071 -1.76672,2.65 -0.6589,-0.494 -3.46059,2.307 -0.5438,0.544 0.344,1.6193 0,2.307 -0.4864,0.973 -1.82069,1.3344 -2.30706,2.3071 -0.3439,0.688 0.344,1.6193 0,2.3071 -0.2432,0.486 -0.769,0.769 -1.15352,1.1535 -0.3845,0.384 -0.7011,0.852 -1.15353,1.1535 -0.7154,0.477 -1.83014,0.438 -2.30706,1.153599 -0.4266,0.64 0,1.538 0,2.307 -0.3845,0.769 -0.6377,1.6193 -1.15354,2.3071 -0.769,0.769 -1.53803,1.538 -2.30705,2.3071 0,0.385 0.1719,0.81 0,1.1535 -0.4864,0.973 -1.82069,1.3343 -2.30706,2.307 -0.1719,0.344 0.1719,0.81 0,1.1535 -0.2432,0.487 -0.9103,0.667 -1.15353,1.1536 -0.1719,0.344 0.1719,0.81 0,1.1535 -0.5675,1.1351 -4.04656,3.479 -4.61411,4.6141 -0.344,0.688 0.2432,1.5775 0,2.3071 -1.56223,4.6867 -0.6438,-0.08 -3.46059,4.6141 -5.61965,9.3661 0.2204,0.492 -1.15352,4.6141 -0.2719,0.816 -0.8817,1.4914 -1.15354,2.3071 -0.2432,0.73 0.344,1.6192 0,2.307 -0.2432,0.487 -0.9103,0.667 -1.15352,1.1536 -0.5438,1.0875 -0.6098,2.373 -1.15354,3.4605 -0.4863,0.973 -1.82068,1.3343 -2.30704,2.3071 -0.5438,1.0876 -0.6098,2.373 -1.15355,3.4606 -0.2432,0.486 -0.769,0.769 -1.15351,1.1535 -0.769,0.769 -1.7038,1.4022 -2.30706,2.3071 -0.2133,0.32 0.1719,0.81 0,1.1534 -0.472,0.944 -2.73609,2.4946 -3.46059,3.4607 -0.8318,1.1091 -1.47523,2.3515 -2.30706,3.460599 -0.1799,0.24 -2.275,2.2109 -2.30705,2.307 -0.2432,0.73 0,1.5379994 0,2.3069991 0,0.3849997 0.1719,0.8099994 0,1.1535991 -2.40037,4.8007974 0.08,-1.2330991 -2.30706,1.1535994 -0.2719,0.272 0.1216,0.7889997 0,1.1534994 -2.78517,8.3554984 0.3326,-1.8186991 -2.30707,3.4604986 -0.1719,0.345 0.1719,0.80999997 0,1.15359994 -0.2432,0.48699997 -0.769,0.76899997 -1.15352,1.15349994 -0.769,0.76900002 -1.65452,1.43699992 -2.30705,2.30709992 -2.18528,-0.131 -0.769,2.6916001 -1.15354,3.4606001 -0.2432,0.4860001 -0.9816,0.6370001 -1.15352,1.1535001 -0.2432,0.73 0.3439,1.6192 0,2.3071004 -0.4863,0.973 -1.53803,1.538 -2.30707,2.307001 -0.3845,0.385 -0.769,0.769 -1.15351,1.1536 -0.3845,0.384001 -0.6672,0.910001 -1.15354,1.153501 -0.344,0.172 -0.9816,-0.344 -1.15352,0 -2.85084,5.701702 2.55962,-0.253 -1.15354,3.460602 -0.3845,0.385 -0.769,0.769 -1.15352,1.1535 -0.3845,0.385 -0.9103,0.667 -1.15353,1.1535 -0.1719,0.344 0.1719,0.81 0,1.1535 -0.3296,0.659 -3.43028,2.3374 -2.30706,3.4607 0.037,0.04 3.18082,0 3.46059,0 0.3845,0 0.769,0 1.15352,0 0.3845,0 0.8096,0.172 1.15354,0 0.4864,-0.243 0.6672,-0.91 1.15352,-1.1536 0.344,-0.172 1.15354,-0.384 1.15354,0 0,0.385 -1.53805,0 -1.15354,0 1.15354,0 2.30705,0 3.46059,0 2.30705,0 4.61411,0 6.92116,0 7.69429,0 13.34193,0 23.07059,0 2.69157,0 5.38312,0 8.0747,0 0.5195,0 3.10952,0.176 3.46059,0 0.4864,-0.243 0.6377,-0.982 1.15352,-1.1536 0.5904,-0.197 6.09651,0 6.92118,0 4.61411,0 9.22822,0 13.84234,0 8.84373,0 17.68745,0 26.53118,0 1.92255,0 3.84508,0 5.76767,0 0.3842,0 0.769,0 1.15353,0 0.3842,0 0.8336,0.214 1.15346,0 0.905,-0.603 1.40222,-1.7038 2.30706,-2.307 0.3197,-0.213 0.769,0 1.15359,0 0.3842,0 0.769,0 1.15353,0 2.307,0 4.61405,0 6.92111,0 0.5197,0 3.10953,-0.176 3.46059,0 0.4864,0.243 0.6672,0.91 1.1536,1.1535 0.3438,0.172 1.15346,-0.385 1.15346,0 0,0.384 -1.53806,0 -1.15346,0 0.769,0 1.53799,0 2.30699,0 0.3842,0 0.7691,0 1.15353,0 0.3849,0 0.8816,-0.272 1.15353,0 0.112,0.111 0,5.3281 0,5.7677 0,3.075999 0,6.152099 0,9.228199 0,0.977 0.2071,3.993998 0,4.614098 -0.1719,0.516 -0.9104,0.667 -1.15353,1.1535 -0.3438,0.688 0.3438,1.6193 0,2.3071 -0.3087,0.617 -1.99852,1.69 -2.30706,2.307 -0.1537,0.307 0,6.3994 0,6.9212 0,0.977 0.2071,3.994 0,4.6142 -0.1719,0.516 -0.9103,0.667 -1.15346,1.1535 -0.1719,0.344 0,0.769 0,1.1535 0,1.1535 -0.3653,2.3662 0,3.4606 0.1719,0.516 0.9103,0.667 1.15346,1.1535 0.1719,0.345 0,0.769 0,1.1535 0,0.385 0,0.769 0,1.1536 0,1.1536 0,2.307 0,3.4606 0,0.384 -0.1719,0.81 0,1.1535 0.4864,0.973 1.82074,1.3344 2.30706,2.307 0.1719,0.344 -0.1719,0.81 0,1.1536 0.7127,1.4254 1.11367,1.1535 2.30706,1.1535 0.3842,0 0.8096,0.172 1.15359,0 0.4864,-0.243 0.6671,-0.91 1.15347,-1.1535 0.6878,-0.344 1.61926,0.344 2.30705,0 2.55048,-1.2753 0.3582,-0.716 1.15353,-2.3071 0.4865,-0.973 1.82068,-1.3343 2.30706,-2.307 0.1719,-0.344 -0.093,-0.78 0,-1.1536 0.295,-1.1796 0.6095,-2.373 1.15353,-3.4606 0.2435,-0.486 0.9104,-0.667 1.15353,-1.1535 0.1719,-0.344 -0.1719,-0.81 0,-1.1535 0.2429,-0.487 0.9104,-0.667 1.15353,-1.1535 0.1719,-0.344 0,-0.769 0,-1.1536 0,-0.384 0,-0.769 0,-1.1535 0,-1.9225 0,-3.8451 0,-5.7677 0,-0.769 -0.1869,-1.5609 0,-2.307 0.295,-1.1796 0.8586,-2.281 1.15353,-3.4606 0.093,-0.373 -0.1719,-0.81 0,-1.1535 0.2429,-0.487 0.9103,-0.667 1.15352,-1.1536 0.172,-0.344 -0.2129,-0.834 0,-1.1535 0.603,-0.905 1.5381,-1.538 2.3071,-2.307 0.384,-0.385 0.982,-0.637 1.1535,-1.1536 0.243,-0.73 0,-1.538 0,-2.307 0,-0.384998 -0.172,-0.809998 0,-1.153498 0.243,-0.486 0.91,-0.667 1.1535,-1.1535 0.615,-1.2311 -0.615,-1.0761 0,-2.3072 0.243,-0.486 0.769,-0.769 1.1535,-1.1534 0.384,-0.384 0.769,-1.5381 1.1536,-1.1535 0.384,0.384 -1.5381,1.538 -1.1536,1.1535 0.769,-0.769 1.7039,-1.4022 2.3071,-2.3071 0.427,-0.64 -0.544,-1.7633 0,-2.3071 0.272,-0.271 0.81,0.172 1.1535,0 4.8007,-2.400299 -1.2331,0.08 1.1536,-2.306999 0.272,-0.272 0.882,0.272 1.1535,0 0.277,-0.278 -0.277,-4.3366 0,-4.6142 0.272,-0.272 0.769,0 1.1535,0 3.0761,0 6.1522,0 9.2283,0 0.52,0 3.1095,0.176 3.4606,0 0.486,-0.243 0.667,-0.91 1.1535,-1.1535 0.344,-0.172 0.769,0 1.1535,0 0.384,0 0.769,0 1.1536,0 1.9225,0 3.8451,0 5.7676,0 1.9225,0 3.8451,0 5.7677,0 0.769,0 1.5485,0.126 2.307,0 1.5638,-0.26 3.0447,-0.929 4.6141,-1.1535 1.9032,-0.271 3.8824,0.377 5.7677,0 1.1923,-0.239 2.2809,-0.859 3.4606,-1.1535 0.373,-0.09 0.882,0.272 1.1535,0 0.02,-0.02 0.122,-4.127502 0,-4.614102 -4.1819,-12.5456025 0.608,3.039802 -1.1535,-5.7677024 -1.2002,-6.0009002 -0.769,-1.1535 -2.3072,-5.7676002 -0.365,-1.0943 0.279,-2.34149992 0,-3.46059986 -0.208,-0.83399994 -0.985,-1.46399994 -1.1534,-2.30709994 -0.227,-1.1310992 0,-2.3069986 0,-3.460498 0,-0.7689994 0.344,-1.6192991 0,-2.3071985 -0.487,-0.9729997 -1.7038,-1.4020994 -2.3071,-2.3069991 -0.211,-0.317 0.08,-4.365099 0,-4.614099 -0.172,-0.516 -0.91,-0.667 -1.1535,-1.1535 -0.344,-0.688 0.344,-1.6193 0,-2.3071 -0.243,-0.486 -0.91,-0.667 -1.1536,-1.1536 -0.172,-0.344 0.122,-0.789 0,-1.1534 -0.272,-0.816 -0.882,-1.4914 -1.1535,-2.3071 -1.1446,-3.4339 2.7314,2.3669 -1.1535,-3.4606 -0.603,-0.905 -1.8207,-1.3343 -2.307,-2.307 -0.172,-0.345 0.172,-0.81 0,-1.1536 -0.243,-0.486 -0.91,-0.667 -1.1536,-1.1535 -0.172,-0.344 0.172,-0.81 0,-1.1536 -0.243,-0.486 -0.981,-0.638 -1.1535,-1.1534 -0.244,-0.73 0.344,-1.6193 0,-2.3071 -0.486,-0.973 -1.6545,-1.437 -2.3071,-2.307 -1.0317,-1.3757 -1.3532,-3.1834 -2.307,-4.6142 -0.887,-1.331 -2.5733,-2.1296 -3.4606,-3.4606 -0.213,-0.32 0.172,-0.81 0,-1.1535 -0.487,-0.973 -1.9632,-1.2753 -2.3071,-2.3071 -0.243,-0.729 0,-1.538 0,-2.307 0,-0.385 0.214,-0.833 0,-1.1535 -0.603,-0.905 -1.7038,-1.4022 -2.307,-2.3071 -0.214,-0.32 0.122,-0.789 0,-1.1535 -0.272,-0.816 -0.677,-1.5917 -1.1536,-2.3071 -0.301,-0.453 -0.982,-0.637 -1.1535,-1.1535 0,-7.6516 0.544,1.6313 -1.1535,-3.4605 -0.243,-0.73 0.286,-1.5931 0,-2.3072 -0.515,-1.2872 -1.7922,-2.1733 -2.3071,-3.4605 -0.286,-0.713999 0.187,-1.560999 0,-2.307099 -0.208,-0.834 -0.882,-1.4914 -1.1535,-2.3071 -0.122,-0.365 0.172,-0.81 0,-1.1535 -0.243,-0.486 -0.91,-0.667 -1.1535,-1.1535 -0.172,-0.344 0.172,-0.81 0,-1.1536 -0.243,-0.486 -0.982,-0.637 -1.1536,-1.1535 -0.243,-0.729 0.344,-1.6192 0,-2.307 -0.692,-1.3842 -2.7685,-2.0764 -3.4606,-3.4606 -0.615,-1.2311 0.615,-1.0761 0,-2.307 -0.243,-0.487 -0.769,-0.769 -1.1535,-1.1536 -0.384,-0.384 -0.769,-0.769 -1.1535,-1.1535 -1.538,-1.5381 -3.0762,-3.0761 -4.6142,-4.614093 -0.384,-0.383997 -0.91,-0.666997 -1.1535,-1.153494 -0.544,-1.087594 -0.609,-2.373088 -1.1535,-3.460679 -0.243,-0.486 -0.769,-0.768997 -1.1536,-1.153494 -0.384,-0.384 -0.769,-0.768997 -1.1535,-1.153497 -1.538,-1.5381 -3.076,-3.0761 -4.6141,-4.6142 -0.3842,-0.384 -0.769,-0.769 -1.15352,-1.1534 -0.3842,-0.384 -0.9104,-0.667 -1.15353,-1.1535 -0.1719,-0.344 0.1719,-0.81 0,-1.1536 -0.5678,-1.1351 -4.04653,-3.479 -4.61405,-4.6141 -0.1719,-0.344 0.1719,-0.81 0,-1.1536 -0.2435,-0.486 -0.8519,-0.701 -1.1536,-1.1535 -0.4767,-0.715 -0.6766,-1.5917 -1.15353,-2.307 -0.3015,-0.453 -0.769,-0.769 -1.15353,-1.1535 -1.15352,-1.1536 -2.30699,-2.3072 -3.46058,-3.4607 -1.15353,-1.1535 -2.30706,-2.307 -3.46059,-3.4605 -0.3842,-0.384 -0.9103,-0.667 -1.15353,-1.1536 -0.1719,-0.344 0.1719,-0.81 0,-1.1535 -0.4864,-0.973 -1.82068,-1.3343 -2.30706,-2.307 -0.1719,-0.345 0.2129,-0.834 0,-1.1536 -0.8873,-1.3309 -2.57327,-2.1296 -3.46059,-3.4606 -0.4767,-0.715 -0.6766,-1.5917 -1.15346,-2.307 -0.3015,-0.453 -0.9104,-0.667 -1.1536,-1.1535 -0.1719,-0.344 0.1719,-0.81 0,-1.1536 -0.5678,-1.1351 -4.04653,-3.479 -4.61405,-4.6141 -1.02107,-2.042 1.71571,-0.394 -1.15353,-2.3071 -0.7155,-0.477 -1.98777,-0.356 -2.30712,-1.1535 -0.5711,-1.428 0,-3.076 0,-4.6142 z"
       id="path10"
       inkscape:connector-curvature="0"
       transform="matrix(0.70914234,0,0,0.70914234,51.148113,-17.702838)" />
    <text
       xml:space="preserve"
       style="font-style:normal;font-variant:normal;font-weight:normal;font-stretch:normal;font-size:20.59675789px;line-height:125%;font-family:NanumGothic;-inkscape-font-specification:NanumGothic;letter-spacing:0px;word-spacing:0px;fill:#00657e;fill-opacity:1;stroke:#65e0ff;stroke-width:0.51491892px;stroke-linecap:butt;stroke-linejoin:miter;stroke-opacity:1;filter:url(#filter1425)"
       x="100.42658"
       y="106.98814"
       id="text897"
       transform="matrix(1.1046157,0,0,1.1046157,-28.402797,-42.447862)"><tspan
         sodipodi:role="line"
         id="tspan895"
         x="100.42658"
         y="106.98814"
         style="font-style:normal;font-variant:normal;font-weight:normal;font-stretch:normal;font-family:Orbitron;-inkscape-font-specification:Orbitron;fill:#00657e;fill-opacity:1;stroke:#65e0ff;stroke-width:0.51491892px;stroke-opacity:1">Spectrum Wrapper</tspan></text>
  </g>
</svg>
